<svg xmlns="http://www.w3.org/2000/svg" xmlns:xlink="http://www.w3.org/1999/xlink" xmlns:lucid="lucid" width="1220" height="840"><g transform="translate(-220 -300)" lucid:page-tab-id="0_0"><path d="M380 428c0 6.63-26.86 12-60 12s-60-5.37-60-12v-96c0-6.63 26.86-12 60-12s60 5.37 60 12z" stroke="#5e5e5e" stroke-width="3" fill="#fff"/><path d="M380 332c0 6.63-26.86 12-60 12s-60-5.37-60-12" stroke="#5e5e5e" stroke-width="3" fill="none"/><use xlink:href="#a" transform="matrix(1,0,0,1,265,349) translate(24.197530864197535 47.34027777777778)"/><path d="M1060 788c0 6.63-26.86 12-60 12s-60-5.37-60-12v-96c0-6.63 26.86-12 60-12s60 5.37 60 12z" stroke="#5e5e5e" stroke-width="3" fill="#fff"/><path d="M1060 692c0 6.63-26.86 12-60 12s-60-5.37-60-12" stroke="#5e5e5e" stroke-width="3" fill="none"/><use xlink:href="#b" transform="matrix(1,0,0,1,945,709) translate(11.29629629629629 47.34027777777778)"/><path d="M1240 788c0 6.63-26.86 12-60 12s-60-5.37-60-12v-96c0-6.63 26.86-12 60-12s60 5.37 60 12z" stroke="#5e5e5e" stroke-width="3" fill="#fff"/><path d="M1240 692c0 6.63-26.86 12-60 12s-60-5.37-60-12" stroke="#5e5e5e" stroke-width="3" fill="none"/><use xlink:href="#c" transform="matrix(1,0,0,1,1125,709) translate(19.259259259259267 47.34027777777778)"/><path d="M1420 788c0 6.63-26.86 12-60 12s-60-5.37-60-12v-96c0-6.63 26.86-12 60-12s60 5.37 60 12z" stroke="#5e5e5e" stroke-width="3" fill="#fff"/><path d="M1420 692c0 6.63-26.86 12-60 12s-60-5.37-60-12" stroke="#5e5e5e" stroke-width="3" fill="none"/><use xlink:href="#d" transform="matrix(1,0,0,1,1305,709) translate(5.154320987654316 47.34027777777778)"/><path d="M240 526c0-3.3 2.7-6 6-6h148c3.3 0 6 2.7 6 6v108c0 3.3-2.7 6-6 6H246c-3.3 0-6-2.7-6-6z" stroke="#5e5e5e" stroke-width="3" fill="#fff"/><use xlink:href="#e" transform="matrix(1,0,0,1,252,532) translate(24.419753086419753 53.77777777777778)"/><use xlink:href="#f" transform="matrix(1,0,0,1,252,532) translate(75.77777777777777 53.77777777777778)"/><path d="M240 766c0-3.3 2.7-6 6-6h148c3.3 0 6 2.7 6 6v108c0 3.3-2.7 6-6 6H246c-3.3 0-6-2.7-6-6z" stroke="#5e5e5e" stroke-width="3" fill="#fff"/><use xlink:href="#g" transform="matrix(1,0,0,1,252,772) translate(35.9320987654321 53.77777777777778)"/><path d="M240 1006c0-3.3 2.7-6 6-6h148c3.3 0 6 2.7 6 6v108c0 3.3-2.7 6-6 6H246c-3.3 0-6-2.7-6-6z" stroke="#5e5e5e" stroke-width="3" fill="#fff"/><use xlink:href="#h" transform="matrix(1,0,0,1,252,1012) translate(24.851851851851848 53.77777777777778)"/><use xlink:href="#i" transform="matrix(1,0,0,1,252,1012) translate(88.98765432098766 53.77777777777778)"/><path d="M1100 1006c0-3.3 2.7-6 6-6h148c3.3 0 6 2.7 6 6v108c0 3.3-2.7 6-6 6h-148c-3.3 0-6-2.7-6-6z" stroke="#5e5e5e" stroke-width="3" fill="#fff"/><use xlink:href="#h" transform="matrix(1,0,0,1,1112,1012) translate(24.851851851851848 53.77777777777778)"/><use xlink:href="#i" transform="matrix(1,0,0,1,1112,1012) translate(88.98765432098766 53.77777777777778)"/><path d="M244.37 517.9v-36.1c0-3.3 2.68-6 6-6h5.38c3.3 0 6-2.67 6-6v-18.56" stroke="#5e5e5e" stroke-width="2" fill="none"/><path d="M245.37 518.62l-2 .54v-1.3h2" fill="#5e5e5e"/><path d="M261.75 435.98l4.63 14.26h-9.27z" stroke="#5e5e5e" stroke-width="2" fill="#5e5e5e"/><path d="M379.4 432.87v36.8c0 3.32 2.7 6 6 6h6.4c3.32 0 6 2.7 6 6v19.3" stroke="#5e5e5e" stroke-width="2" fill="none"/><path d="M380.4 432.9h-2v-.27l.57-.4.63-.52.48-.46.32-.38" fill="#5e5e5e"/><path d="M397.8 516.24l-4.63-14.27h9.27z" stroke="#5e5e5e" stroke-width="2" fill="#5e5e5e"/><path d="M320 757.5V660" stroke="#5e5e5e" stroke-width="2" fill="none"/><path d="M321 758.5h-2v-1.03h2" fill="#5e5e5e"/><path d="M320 644.74l4.64 14.26h-9.28z" stroke="#5e5e5e" stroke-width="2" fill="#5e5e5e"/><path d="M1175.76 824.24c2.34-2.34 6.14-2.34 8.48 0l12.22 12.22c1.96 1.96 1.3 3.54-1.46 3.54s-5 2.24-5 5v110c0 2.76 2.24 5 5 5s3.42 1.58 1.46 3.54l-12.22 12.22c-2.34 2.34-6.14 2.34-8.48 0l-12.22-12.22c-1.96-1.96-1.3-3.54 1.46-3.54s5-2.24 5-5V845c0-2.76-2.24-5-5-5s-3.42-1.58-1.46-3.54zM1344.73 828.52c2.9-1.6 6.56-.52 8.14 2.4l8.28 15.16c1.32 2.43.25 3.76-2.4 2.98-2.65-.78-5.43.74-6.2 3.4l-35.9 122.02c-.78 2.65.73 5.43 3.38 6.2 2.65.8 2.84 2.5.4 3.8l-15.16 8.3c-2.9 1.58-6.56.5-8.14-2.4l-8.28-15.18c-1.32-2.42-.25-3.76 2.4-2.98 2.65.78 5.43-.73 6.2-3.38l35.9-122.03c.78-2.64-.73-5.42-3.38-6.2-2.65-.78-2.84-2.48-.4-3.8zM999.7 835.6c1-3.16 4.38-4.9 7.53-3.9l18.2 5.83c2.84.9 3 2.75.35 4.1-2.65 1.38-3.7 4.63-2.32 7.28l54.6 106c1.37 2.63 4.62 3.67 7.27 2.3 2.64-1.35 4.05-.16 3.15 2.68l-5.83 18.2c-1 3.15-4.38 4.9-7.54 3.9l-18.2-5.84c-2.83-.9-2.98-2.75-.33-4.1 2.64-1.37 3.68-4.63 2.32-7.27l-54.62-105.98c-1.36-2.66-4.6-3.7-7.26-2.34-2.65 1.37-4.06.17-3.15-2.66zM315.76 884.24c2.34-2.34 6.14-2.34 8.48 0l12.22 12.22c1.96 1.96 1.3 3.54-1.46 3.54s-5 2.24-5 5v58.7c0 2.77 2.24 5 5 5s3.42 1.6 1.46 3.55l-12.22 12.22c-2.34 2.34-6.14 2.34-8.48 0l-12.22-12.22c-1.96-1.95-1.3-3.54 1.46-3.54s5-2.23 5-5V905c0-2.76-2.24-5-5-5s-3.42-1.58-1.46-3.54z" stroke="#5e5e5e" stroke-width="3" fill="#fff"/><path d="M402.5 1060h33c3.3 0 6-2.7 6-6V586c0-3.3-2.7-6-6-6H420" stroke="#5e5e5e" stroke-width="2" fill="none"/><path d="M402.53 1061h-1.03v-2h1.03" fill="#5e5e5e"/><path d="M404.74 580l14.26-4.64v9.28z" stroke="#5e5e5e" stroke-width="2" fill="#5e5e5e"/><path d="M480 686c0-3.3 2.7-6 6-6h248c3.3 0 6 2.7 6 6v168c0 3.3-2.7 6-6 6H486c-3.3 0-6-2.7-6-6z" fill="none"/><path d="M480 860c5.52 0 10-4.48 10-10v-70c0-5.52 4.48-10 10-10-5.52 0-10-4.48-10-10v-70c0-5.52-4.48-10-10-10" stroke="#5e5e5e" stroke-width="3" fill="none"/><g><use xlink:href="#j" transform="matrix(1,0,0,1,515,685) translate(0 62.77777777777778)"/><use xlink:href="#k" transform="matrix(1,0,0,1,515,685) translate(60.4320987654321 62.77777777777778)"/><use xlink:href="#l" transform="matrix(1,0,0,1,515,685) translate(85.12345679012346 62.77777777777778)"/><use xlink:href="#m" transform="matrix(1,0,0,1,515,685) translate(149.25925925925927 62.77777777777778)"/><use xlink:href="#n" transform="matrix(1,0,0,1,515,685) translate(0 89.44444444444446)"/><use xlink:href="#o" transform="matrix(1,0,0,1,515,685) translate(37.03703703703704 89.44444444444446)"/><use xlink:href="#p" transform="matrix(1,0,0,1,515,685) translate(72.8395061728395 89.44444444444446)"/><use xlink:href="#q" transform="matrix(1,0,0,1,515,685) translate(103.7037037037037 89.44444444444446)"/><use xlink:href="#r" transform="matrix(1,0,0,1,515,685) translate(162.9012345679012 89.44444444444446)"/><use xlink:href="#s" transform="matrix(1,0,0,1,515,685) translate(0 116.11111111111111)"/><use xlink:href="#t" transform="matrix(1,0,0,1,515,685) translate(46.79012345679013 116.11111111111111)"/></g><defs><path fill="#333" d="M240 0l2-218c-23 76-54 145-80 218h-23L58-218 59 0H30v-248h44l77 211c21-75 51-140 76-211h43V0h-30" id="u"/><path fill="#333" d="M179-190L93 31C79 59 56 82 12 73V49c39 6 53-20 64-50L1-190h34L92-34l54-156h33" id="v"/><path fill="#333" d="M185-189c-5-48-123-54-124 2 14 75 158 14 163 119 3 78-121 87-175 55-17-10-28-26-33-46l33-7c5 56 141 63 141-1 0-78-155-14-162-118-5-82 145-84 179-34 5 7 8 16 11 25" id="w"/><path fill="#333" d="M145-31C134-9 116 4 85 4 32 4 16-35 15-94c0-59 17-99 70-100 32-1 48 14 60 33 0-11-1-24 2-32h30l-1 268h-32zM93-21c41 0 51-33 51-76s-8-73-50-73c-40 0-46 35-46 75s5 74 45 74" id="x"/><path fill="#333" d="M24 0v-261h32V0H24" id="y"/><g id="a"><use transform="matrix(0.06172839506172839,0,0,0.06172839506172839,0,0)" xlink:href="#u"/><use transform="matrix(0.06172839506172839,0,0,0.06172839506172839,18.456790123456788,0)" xlink:href="#v"/><use transform="matrix(0.06172839506172839,0,0,0.06172839506172839,29.5679012345679,0)" xlink:href="#w"/><use transform="matrix(0.06172839506172839,0,0,0.06172839506172839,44.38271604938271,0)" xlink:href="#x"/><use transform="matrix(0.06172839506172839,0,0,0.06172839506172839,56.728395061728385,0)" xlink:href="#y"/></g><path fill="#333" d="M63-220v92h138v28H63V0H30v-248h175v28H63" id="z"/><path fill="#333" d="M24-231v-30h32v30H24zM24 0v-190h32V0H24" id="A"/><path fill="#333" d="M114-163C36-179 61-72 57 0H25l-1-190h30c1 12-1 29 2 39 6-27 23-49 58-41v29" id="B"/><path fill="#333" d="M100-194c63 0 86 42 84 106H49c0 40 14 67 53 68 26 1 43-12 49-29l28 8c-11 28-37 45-77 45C44 4 14-33 15-96c1-61 26-98 85-98zm52 81c6-60-76-77-97-28-3 7-6 17-6 28h103" id="C"/><path fill="#333" d="M135-143c-3-34-86-38-87 0 15 53 115 12 119 90S17 21 10-45l28-5c4 36 97 45 98 0-10-56-113-15-118-90-4-57 82-63 122-42 12 7 21 19 24 35" id="D"/><path fill="#333" d="M59-47c-2 24 18 29 38 22v24C64 9 27 4 27-40v-127H5v-23h24l9-43h21v43h35v23H59v120" id="E"/><path fill="#333" d="M100-194c62-1 85 37 85 99 1 63-27 99-86 99S16-35 15-95c0-66 28-99 85-99zM99-20c44 1 53-31 53-75 0-43-8-75-51-75s-53 32-53 75 10 74 51 75" id="F"/><g id="b"><use transform="matrix(0.06172839506172839,0,0,0.06172839506172839,0,0)" xlink:href="#z"/><use transform="matrix(0.06172839506172839,0,0,0.06172839506172839,13.518518518518517,0)" xlink:href="#A"/><use transform="matrix(0.06172839506172839,0,0,0.06172839506172839,18.39506172839506,0)" xlink:href="#B"/><use transform="matrix(0.06172839506172839,0,0,0.06172839506172839,25.74074074074074,0)" xlink:href="#C"/><use transform="matrix(0.06172839506172839,0,0,0.06172839506172839,38.08641975308642,0)" xlink:href="#D"/><use transform="matrix(0.06172839506172839,0,0,0.06172839506172839,49.19753086419753,0)" xlink:href="#E"/><use transform="matrix(0.06172839506172839,0,0,0.06172839506172839,55.370370370370374,0)" xlink:href="#F"/><use transform="matrix(0.06172839506172839,0,0,0.06172839506172839,67.71604938271605,0)" xlink:href="#B"/><use transform="matrix(0.06172839506172839,0,0,0.06172839506172839,75.06172839506173,0)" xlink:href="#C"/></g><path fill="#333" d="M141-36C126-15 110 5 73 4 37 3 15-17 15-53c-1-64 63-63 125-63 3-35-9-54-41-54-24 1-41 7-42 31l-33-3c5-37 33-52 76-52 45 0 72 20 72 64v82c-1 20 7 32 28 27v20c-31 9-61-2-59-35zM48-53c0 20 12 33 32 33 41-3 63-29 60-74-43 2-92-5-92 41" id="G"/><path fill="#333" d="M210-169c-67 3-38 105-44 169h-31v-121c0-29-5-50-35-48C34-165 62-65 56 0H25l-1-190h30c1 10-1 24 2 32 10-44 99-50 107 0 11-21 27-35 58-36 85-2 47 119 55 194h-31v-121c0-29-5-49-35-48" id="H"/><g id="c"><use transform="matrix(0.06172839506172839,0,0,0.06172839506172839,0,0)" xlink:href="#w"/><use transform="matrix(0.06172839506172839,0,0,0.06172839506172839,14.814814814814813,0)" xlink:href="#E"/><use transform="matrix(0.06172839506172839,0,0,0.06172839506172839,20.98765432098765,0)" xlink:href="#B"/><use transform="matrix(0.06172839506172839,0,0,0.06172839506172839,28.33333333333333,0)" xlink:href="#C"/><use transform="matrix(0.06172839506172839,0,0,0.06172839506172839,40.679012345679006,0)" xlink:href="#G"/><use transform="matrix(0.06172839506172839,0,0,0.06172839506172839,53.02469135802468,0)" xlink:href="#H"/></g><path fill="#333" d="M96-169c-40 0-48 33-48 73s9 75 48 75c24 0 41-14 43-38l32 2c-6 37-31 61-74 61-59 0-76-41-82-99-10-93 101-131 147-64 4 7 5 14 7 22l-32 3c-4-21-16-35-41-35" id="I"/><path fill="#333" d="M106-169C34-169 62-67 57 0H25v-261h32l-1 103c12-21 28-36 61-36 89 0 53 116 60 194h-32v-121c2-32-8-49-39-48" id="J"/><path fill="#333" d="M115-194c55 1 70 41 70 98S169 2 115 4C84 4 66-9 55-30l1 105H24l-1-265h31l2 30c10-21 28-34 59-34zm-8 174c40 0 45-34 45-75s-6-73-45-74c-42 0-51 32-51 76 0 43 10 73 51 73" id="K"/><g id="d"><use transform="matrix(0.06172839506172839,0,0,0.06172839506172839,0,0)" xlink:href="#u"/><use transform="matrix(0.06172839506172839,0,0,0.06172839506172839,18.456790123456788,0)" xlink:href="#G"/><use transform="matrix(0.06172839506172839,0,0,0.06172839506172839,30.80246913580247,0)" xlink:href="#A"/><use transform="matrix(0.06172839506172839,0,0,0.06172839506172839,35.67901234567901,0)" xlink:href="#y"/><use transform="matrix(0.06172839506172839,0,0,0.06172839506172839,40.55555555555556,0)" xlink:href="#I"/><use transform="matrix(0.06172839506172839,0,0,0.06172839506172839,51.66666666666667,0)" xlink:href="#J"/><use transform="matrix(0.06172839506172839,0,0,0.06172839506172839,64.01234567901236,0)" xlink:href="#A"/><use transform="matrix(0.06172839506172839,0,0,0.06172839506172839,68.8888888888889,0)" xlink:href="#H"/><use transform="matrix(0.06172839506172839,0,0,0.06172839506172839,87.34567901234568,0)" xlink:href="#K"/></g><path fill="#333" d="M30-248c87 1 191-15 191 75 0 78-77 80-158 76V0H30v-248zm33 125c57 0 124 11 124-50 0-59-68-47-124-48v98" id="L"/><path fill="#333" d="M197 0v-115H63V0H30v-248h33v105h134v-105h34V0h-34" id="M"/><g id="e"><use transform="matrix(0.06172839506172839,0,0,0.06172839506172839,0,0)" xlink:href="#L"/><use transform="matrix(0.06172839506172839,0,0,0.06172839506172839,14.814814814814813,0)" xlink:href="#M"/><use transform="matrix(0.06172839506172839,0,0,0.06172839506172839,30.80246913580247,0)" xlink:href="#L"/></g><path fill="#333" d="M205 0l-28-72H64L36 0H1l101-248h38L239 0h-34zm-38-99l-47-123c-12 45-31 82-46 123h93" id="N"/><path fill="#333" d="M33 0v-248h34V0H33" id="O"/><g id="f"><use transform="matrix(0.06172839506172839,0,0,0.06172839506172839,0,0)" xlink:href="#N"/><use transform="matrix(0.06172839506172839,0,0,0.06172839506172839,14.814814814814813,0)" xlink:href="#L"/><use transform="matrix(0.06172839506172839,0,0,0.06172839506172839,29.629629629629626,0)" xlink:href="#O"/></g><path fill="#333" d="M233-177c-1 41-23 64-60 70L243 0h-38l-65-103H63V0H30v-248c88 3 205-21 203 71zM63-129c60-2 137 13 137-47 0-61-80-42-137-45v92" id="P"/><path fill="#333" d="M85-194c31 0 48 13 60 33l-1-100h32l1 261h-30c-2-10 0-23-3-31C134-8 116 4 85 4 32 4 16-35 15-94c0-66 23-100 70-100zm9 24c-40 0-46 34-46 75 0 40 6 74 45 74 42 0 51-32 51-76 0-42-9-74-50-73" id="Q"/><path fill="#333" d="M84 4C-5 8 30-112 23-190h32v120c0 31 7 50 39 49 72-2 45-101 50-169h31l1 190h-30c-1-10 1-25-2-33-11 22-28 36-60 37" id="R"/><path fill="#333" d="M141 0L90-78 38 0H4l68-98-65-92h35l48 74 47-74h35l-64 92 68 98h-35" id="S"/><g id="g"><use transform="matrix(0.06172839506172839,0,0,0.06172839506172839,0,0)" xlink:href="#P"/><use transform="matrix(0.06172839506172839,0,0,0.06172839506172839,15.987654320987653,0)" xlink:href="#C"/><use transform="matrix(0.06172839506172839,0,0,0.06172839506172839,28.333333333333332,0)" xlink:href="#Q"/><use transform="matrix(0.06172839506172839,0,0,0.06172839506172839,40.67901234567901,0)" xlink:href="#R"/><use transform="matrix(0.06172839506172839,0,0,0.06172839506172839,53.02469135802469,0)" xlink:href="#S"/></g><g id="h"><use transform="matrix(0.06172839506172839,0,0,0.06172839506172839,0,0)" xlink:href="#P"/><use transform="matrix(0.06172839506172839,0,0,0.06172839506172839,15.987654320987653,0)" xlink:href="#C"/><use transform="matrix(0.06172839506172839,0,0,0.06172839506172839,28.333333333333332,0)" xlink:href="#G"/><use transform="matrix(0.06172839506172839,0,0,0.06172839506172839,40.67901234567901,0)" xlink:href="#I"/><use transform="matrix(0.06172839506172839,0,0,0.06172839506172839,51.79012345679013,0)" xlink:href="#E"/></g><path fill="#333" d="M232-93c-1 65-40 97-104 97C67 4 28-28 28-90v-158h33c8 89-33 224 67 224 102 0 64-133 71-224h33v155" id="T"/><g id="i"><use transform="matrix(0.06172839506172839,0,0,0.06172839506172839,0,0)" xlink:href="#T"/><use transform="matrix(0.06172839506172839,0,0,0.06172839506172839,15.987654320987653,0)" xlink:href="#O"/></g><g id="j"><use transform="matrix(0.06172839506172839,0,0,0.06172839506172839,0,0)" xlink:href="#u"/><use transform="matrix(0.06172839506172839,0,0,0.06172839506172839,18.456790123456788,0)" xlink:href="#R"/><use transform="matrix(0.06172839506172839,0,0,0.06172839506172839,30.80246913580247,0)" xlink:href="#I"/><use transform="matrix(0.06172839506172839,0,0,0.06172839506172839,41.91358024691358,0)" xlink:href="#J"/></g><path fill="#333" d="M101-234c-31-9-42 10-38 44h38v23H63V0H32v-167H5v-23h27c-7-52 17-82 69-68v24" id="U"/><g id="k"><use transform="matrix(0.06172839506172839,0,0,0.06172839506172839,0,0)" xlink:href="#F"/><use transform="matrix(0.06172839506172839,0,0,0.06172839506172839,12.345679012345679,0)" xlink:href="#U"/></g><g id="l"><use transform="matrix(0.06172839506172839,0,0,0.06172839506172839,0,0)" xlink:href="#P"/><use transform="matrix(0.06172839506172839,0,0,0.06172839506172839,15.987654320987653,0)" xlink:href="#C"/><use transform="matrix(0.06172839506172839,0,0,0.06172839506172839,28.333333333333332,0)" xlink:href="#G"/><use transform="matrix(0.06172839506172839,0,0,0.06172839506172839,40.67901234567901,0)" xlink:href="#I"/><use transform="matrix(0.06172839506172839,0,0,0.06172839506172839,51.79012345679013,0)" xlink:href="#E"/></g><path fill="#333" d="M206 0h-36l-40-164L89 0H53L-1-190h32L70-26l43-164h34l41 164 42-164h31" id="V"/><g id="m"><use transform="matrix(0.06172839506172839,0,0,0.06172839506172839,0,0)" xlink:href="#V"/><use transform="matrix(0.06172839506172839,0,0,0.06172839506172839,15.987654320987653,0)" xlink:href="#G"/><use transform="matrix(0.06172839506172839,0,0,0.06172839506172839,28.333333333333332,0)" xlink:href="#D"/></g><path fill="#333" d="M117-194c89-4 53 116 60 194h-32v-121c0-31-8-49-39-48C34-167 62-67 57 0H25l-1-190h30c1 10-1 24 2 32 11-22 29-35 61-36" id="W"/><g id="n"><use transform="matrix(0.06172839506172839,0,0,0.06172839506172839,0,0)" xlink:href="#W"/><use transform="matrix(0.06172839506172839,0,0,0.06172839506172839,12.345679012345679,0)" xlink:href="#F"/><use transform="matrix(0.06172839506172839,0,0,0.06172839506172839,24.691358024691358,0)" xlink:href="#E"/></g><g id="o"><use transform="matrix(0.06172839506172839,0,0,0.06172839506172839,0,0)" xlink:href="#D"/><use transform="matrix(0.06172839506172839,0,0,0.06172839506172839,11.11111111111111,0)" xlink:href="#C"/><use transform="matrix(0.06172839506172839,0,0,0.06172839506172839,23.45679012345679,0)" xlink:href="#E"/></g><g id="p"><use transform="matrix(0.06172839506172839,0,0,0.06172839506172839,0,0)" xlink:href="#R"/><use transform="matrix(0.06172839506172839,0,0,0.06172839506172839,12.345679012345679,0)" xlink:href="#K"/></g><path fill="#333" d="M177-190C167-65 218 103 67 71c-23-6-38-20-44-43l32-5c15 47 100 32 89-28v-30C133-14 115 1 83 1 29 1 15-40 15-95c0-56 16-97 71-98 29-1 48 16 59 35 1-10 0-23 2-32h30zM94-22c36 0 50-32 50-73 0-42-14-75-50-75-39 0-46 34-46 75s6 73 46 73" id="X"/><g id="q"><use transform="matrix(0.06172839506172839,0,0,0.06172839506172839,0,0)" xlink:href="#R"/><use transform="matrix(0.06172839506172839,0,0,0.06172839506172839,12.345679012345679,0)" xlink:href="#D"/><use transform="matrix(0.06172839506172839,0,0,0.06172839506172839,23.45679012345679,0)" xlink:href="#A"/><use transform="matrix(0.06172839506172839,0,0,0.06172839506172839,28.333333333333336,0)" xlink:href="#W"/><use transform="matrix(0.06172839506172839,0,0,0.06172839506172839,40.67901234567901,0)" xlink:href="#X"/></g><g id="r"><use transform="matrix(0.06172839506172839,0,0,0.06172839506172839,0,0)" xlink:href="#B"/><use transform="matrix(0.06172839506172839,0,0,0.06172839506172839,7.345679012345679,0)" xlink:href="#C"/><use transform="matrix(0.06172839506172839,0,0,0.06172839506172839,19.691358024691358,0)" xlink:href="#Q"/><use transform="matrix(0.06172839506172839,0,0,0.06172839506172839,32.03703703703704,0)" xlink:href="#R"/><use transform="matrix(0.06172839506172839,0,0,0.06172839506172839,44.382716049382715,0)" xlink:href="#S"/></g><g id="s"><use transform="matrix(0.06172839506172839,0,0,0.06172839506172839,0,0)" xlink:href="#R"/><use transform="matrix(0.06172839506172839,0,0,0.06172839506172839,12.345679012345679,0)" xlink:href="#W"/><use transform="matrix(0.06172839506172839,0,0,0.06172839506172839,24.691358024691358,0)" xlink:href="#E"/><use transform="matrix(0.06172839506172839,0,0,0.06172839506172839,30.864197530864196,0)" xlink:href="#A"/><use transform="matrix(0.06172839506172839,0,0,0.06172839506172839,35.74074074074074,0)" xlink:href="#y"/></g><g id="t"><use transform="matrix(0.06172839506172839,0,0,0.06172839506172839,0,0)" xlink:href="#B"/><use transform="matrix(0.06172839506172839,0,0,0.06172839506172839,7.345679012345679,0)" xlink:href="#C"/><use transform="matrix(0.06172839506172839,0,0,0.06172839506172839,19.691358024691358,0)" xlink:href="#I"/><use transform="matrix(0.06172839506172839,0,0,0.06172839506172839,30.80246913580247,0)" xlink:href="#C"/><use transform="matrix(0.06172839506172839,0,0,0.06172839506172839,43.148148148148145,0)" xlink:href="#W"/><use transform="matrix(0.06172839506172839,0,0,0.06172839506172839,55.49382716049382,0)" xlink:href="#E"/><use transform="matrix(0.06172839506172839,0,0,0.06172839506172839,61.666666666666664,0)" xlink:href="#y"/><use transform="matrix(0.06172839506172839,0,0,0.06172839506172839,66.5432098765432,0)" xlink:href="#v"/></g></defs></g></svg>