<svg width="240" height="248" viewBox="0 0 240 248" fill="none" xmlns="http://www.w3.org/2000/svg">
<path d="M92.4296 70.8615C83.4989 71.7728 76.5798 77.4043 76.5798 89.2087V108.122C93.9213 108.122 107.052 108.219 110.934 94.369C114.708 80.87 105.363 69.543 92.4296 70.8615Z" fill="#FECA12"/>
<path d="M150.816 222.833C128.172 212.372 111.58 194.934 99.5163 172.821C94.1986 163.079 89.8946 152.746 85.0568 142.721C83.5332 139.566 81.8502 136.484 80.0657 133.479C79.5996 132.698 78.4724 132.335 77.3072 131.541C77.1957 132.798 77.1081 133.32 77.1081 133.843C77.1081 143.534 76.9965 153.228 77.1957 162.914C77.295 166.907 77.7483 170.882 78.55 174.789C80.1892 182.898 82.9437 185.948 90.5 188.819C90.6992 191.807 90.8984 194.864 91.0975 198.096H24.6775C46.4663 228.386 81.2766 247.998 120.504 247.998C142.372 248.033 163.825 241.812 182.507 230.019C171.806 230.186 161.22 227.64 150.816 222.833Z" fill="#8DB5AD"/>
<path d="M23.2271 188.474C31.3511 185.296 34.2072 177.569 35.199 170.288C35.6332 167.105 35.697 163.85 35.7029 160.627C35.7388 132.094 35.7448 103.56 35.7209 75.024C35.7209 73.9473 35.7328 72.8685 35.675 71.7939C35.2767 64.2921 31.4049 59.7373 24.2648 58.3114C24.0656 58.2721 23.8665 58.2267 23.6673 58.1791C22.5679 57.9311 20.4667 57.4372 19.8015 57.2822C7.64095 77.0129 1.12165 99.917 1.00002 123.337C0.878403 146.757 7.15944 169.733 19.1143 189.598C20.1945 189.412 21.2597 189.142 22.301 188.79C22.3548 188.784 22.5958 188.72 23.2271 188.474Z" fill="#3E8AA1"/>
<path d="M204.625 212.058C226.468 189.588 239.999 158.432 239.999 123.996C239.999 55.515 186.497 0 120.499 0C81.9623 0 47.6877 18.928 25.8372 48.3129L25.8591 48.3295C25.8591 48.3295 68.3851 48.3708 89.6382 48.8172C101.909 49.0755 114.04 50.9251 125.432 56.1205C134.218 60.1256 141.115 66.1704 143.845 76.1025C148.331 92.4286 142.525 108.916 129.071 118.753C124.204 122.282 118.851 125.029 113.194 126.902C112.429 127.158 111.684 127.472 110.68 127.856C119.479 135.375 123.763 145.732 128.581 155.774C135.95 171.114 144.515 185.642 156.178 197.974C160.93 202.996 166.076 207.557 172.231 210.611C183.253 216.086 194.02 216.557 204.625 212.058Z" fill="#F57046"/>
<path d="M172.232 210.611C166.078 207.556 160.931 202.995 156.179 197.973C144.52 185.642 135.942 171.114 128.587 155.774C123.769 145.732 119.485 135.374 110.685 127.856C111.681 127.471 112.434 127.157 113.199 126.901C118.856 125.029 124.209 122.282 129.076 118.753C142.53 108.916 148.336 92.4199 143.851 76.1021C141.12 66.17 134.223 60.1252 125.438 56.1202C114.045 50.9247 101.914 49.0751 89.6435 48.8168C68.3904 48.3704 47.1254 48.449 25.8643 48.3291C24.8021 49.7523 23.7751 51.1989 22.7832 52.669C21.7695 54.1817 20.682 55.8618 19.7957 57.2837H19.8097C20.4749 57.4387 24.1615 58.2901 24.275 58.317C31.4151 59.7429 35.279 64.2977 35.6853 71.7994C35.743 72.8741 35.6434 167.111 35.2093 170.293C34.2134 177.568 31.3614 185.295 23.2373 188.479C22.9386 188.595 20.2678 189.416 19.1226 189.61C19.4957 190.226 19.8734 190.838 20.2558 191.447C20.8274 192.361 21.397 193.276 21.9906 194.171C22.8689 195.496 23.7572 196.814 24.6833 198.097H91.1133C90.9142 194.865 90.715 191.809 90.5158 188.82C82.9475 185.956 80.197 182.9 78.5658 174.79C77.7641 170.884 77.3108 166.909 77.2115 162.916C77.0124 153.23 77.1259 143.535 77.1239 133.845C77.1239 133.322 77.2095 132.799 77.323 131.543C78.4961 132.336 79.6154 132.7 80.0795 133.481C81.872 136.486 83.549 139.567 85.0726 142.723C89.9104 152.748 94.2144 163.081 99.5321 172.823C111.596 194.923 128.188 212.371 150.831 222.835C161.236 227.641 171.82 230.187 182.523 230.026C190.221 225.164 197.366 219.416 203.824 212.892C204.099 212.615 204.371 212.338 204.642 212.066C204.37 212.181 204.097 212.295 203.824 212.404C193.467 216.529 182.969 215.942 172.232 210.611ZM76.5802 108.122V89.2084C76.5802 77.404 83.4992 71.7726 92.4298 70.8612C105.364 69.5427 114.709 80.8697 110.934 94.3687C107.059 108.219 93.9316 108.122 76.5802 108.122Z" fill="#223345"/>
</svg>
