<svg width="714" height="200" viewBox="0 0 714 200" fill="none" xmlns="http://www.w3.org/2000/svg">
<path d="M75.9105 57.935C68.5106 58.6602 62.7693 63.1629 62.7693 72.5828V87.7246C77.1226 87.7246 88.0391 87.8043 91.2446 76.7428C94.3784 65.9283 86.6277 56.883 75.9105 57.935Z" fill="#FECA12"/>
<path d="M124.18 178.901C105.409 170.557 91.6537 156.626 81.6542 138.982C77.2525 131.204 73.6801 122.956 69.6931 114.946C68.4332 112.428 67.0378 109.965 65.5546 107.567C65.1718 106.945 64.2468 106.658 63.274 106.021C63.1783 107.025 63.1065 107.439 63.1065 107.861C63.1065 115.6 63.0188 123.338 63.1783 131.068C63.2655 134.257 63.6418 137.431 64.3026 140.552C65.6662 147.023 67.9468 149.462 74.2144 151.749C74.3739 154.14 74.5413 156.578 74.7088 159.161H19.6001C34.3284 178.909 55.8912 192.463 80.0801 197.178C104.269 201.894 129.348 197.431 150.422 184.663C141.359 184.681 132.401 182.714 124.18 178.901Z" fill="#8DB5AD"/>
<path d="M142.584 90.7275C136.077 77.7294 134.482 74.7887 125.926 73.9917L124.786 61.8463H186.872L185.708 73.9917C175.612 74.1591 172.016 76.5578 175.094 86.4718L189.304 122.733C191.481 112.681 194.335 102.787 197.844 93.1183C196.463 73.0832 189.016 53.9422 176.491 38.2381C163.966 22.534 146.957 11.0102 127.723 5.19754C108.488 -0.615099 87.9399 -0.441394 68.8069 5.69558C49.6739 11.8325 32.862 23.6423 20.6047 39.5559C38.2274 39.6515 55.8501 39.5559 73.4727 39.9464C83.6396 40.1536 93.6949 41.6279 103.144 45.772C110.424 48.9598 116.142 53.7972 118.407 61.7109C122.122 74.7409 117.306 87.9063 106.158 95.7641C102.115 98.6005 97.6658 100.809 92.9613 102.315C92.3314 102.522 91.7174 102.769 90.8801 103.112C98.1764 109.113 101.725 117.385 105.72 125.426C111.82 137.667 118.925 149.271 128.589 159.113C132.529 163.098 136.795 166.764 141.898 169.202C151.036 173.577 159.959 173.984 168.755 170.358C172.235 166.901 175.458 163.193 178.395 159.264H169.624L142.584 90.7275Z" fill="#F57046"/>
<path d="M18.4282 151.478C25.1822 148.904 27.5266 142.768 28.3718 136.95C28.6896 134.392 28.8282 131.814 28.7865 129.236C28.8184 106.449 28.8184 83.6667 28.7865 60.8901C28.7865 60.0295 28.7865 59.1688 28.7466 58.316C28.4117 52.323 25.2061 48.689 19.2894 47.5494L18.787 47.4458L15.5974 46.7285C5.52006 62.4814 0.117986 80.7669 0.0177773 99.4639C-0.082431 118.161 5.12334 136.503 15.0312 152.363C15.9263 152.216 16.8086 152 17.6707 151.718C17.7026 151.718 17.9019 151.67 18.4282 151.478Z" fill="#3E8AA1"/>
<path d="M712.697 141.66C702.172 155.408 684.118 163.385 665.65 163.385C635.995 163.385 612.073 139.947 612.073 110.875C612.073 81.8021 635.995 58.3721 665.635 58.3721C695.274 58.3721 714.236 73.2509 711.669 92.0587C710.13 103.216 702.1 110.532 687.882 114.979C677.954 118.063 664.757 119.601 648.865 116.692C649.375 132.767 663.41 144.737 678.13 145.765C687.196 146.45 698.711 142.577 705.848 134.647C709.572 130.774 715.736 137.365 712.697 141.66ZM649.894 104.89C674.709 109.512 684.98 99.4145 687.882 89.5006C690.96 78.8933 682.404 71.1709 673.68 72.0555C658.617 73.4183 652.118 88.4725 649.894 104.89Z" fill="#223345"/>
<path d="M296.3 128.495V60.7547C296.3 42.6243 288.079 42.6004 288.079 37.4999C288.079 27.9845 321.626 23.8165 329.329 27.578V128.495C329.329 146.96 330.469 150.729 335.772 151.606L336.29 159.304H286.955L287.473 151.606C292.776 150.729 296.3 146.96 296.3 128.495Z" fill="#223345"/>
<path d="M349.726 128.495V60.7547C349.726 42.6243 341.505 42.6004 341.505 37.4999C341.505 27.9845 375.052 23.8165 382.755 27.578V128.495C382.755 146.96 385.067 150.729 390.37 151.606L390.88 159.304H341.601L342.111 151.606C347.422 150.729 349.726 146.96 349.726 128.495Z" fill="#223345"/>
<path d="M513.792 150.442C506.664 158.738 497.988 162.396 486.521 162.396C474.034 162.396 463.253 156.754 461.004 145.119C460.829 145.461 460.829 145.637 460.661 145.804C456.212 155.367 442.01 162.54 427.122 162.396C403.846 162.221 392.212 149.398 392.037 134.001C391.869 119.983 403.16 109.894 420.105 104.586C431.572 100.992 446.117 100.315 460.486 100.315V90.1776C460.486 77.8648 452.448 72.0551 445.088 72.0551C438.924 72.0551 433.454 76.1594 433.454 83.6825C433.621 97.366 402.475 98.394 402.307 84.1925C402.307 69.8476 421.644 58.6904 446.962 58.6904C479.655 58.6904 494.71 79.2117 494.71 105.208V133.898C494.71 148.785 503.283 147.924 508.442 141.955C508.442 141.955 511.073 138.934 514.534 142.393C517.995 145.852 513.792 150.442 513.792 150.442ZM460.51 113.616V109.854C447.679 109.854 425.599 110.874 425.599 129.69C425.599 137.213 430.049 143.883 441.005 143.883C449.402 143.883 459.832 137.213 460.51 113.616Z" fill="#223345"/>
<path d="M558.647 137.046C548.376 136.528 538.791 136.703 538.791 132.264C538.791 129.013 541.877 126.965 545.809 127.299C550.538 128.213 555.345 128.672 560.162 128.67C588.868 128.67 606.706 113.281 606.706 94.2979C606.706 80.7499 597.64 68.9791 582.067 63.5121C581.724 61.966 580.87 59.9179 582.577 56.8417C584.467 53.4148 588.565 52.9048 590.112 54.6182C588.398 60.9459 595.415 64.8748 601.404 64.8748C608.078 64.8748 613.213 59.3998 613.213 52.5621C613.213 44.5209 605.167 38.3686 595.072 38.3686C592.014 38.3333 588.987 38.9746 586.206 40.2463C583.426 41.518 580.961 43.3887 578.989 45.7243C574.707 50.8566 574.021 59.0651 577.274 61.966C571.682 60.5526 565.93 59.8643 560.162 59.9179C531.415 59.9179 513.617 75.3068 513.617 94.2979C513.617 107.631 521.655 118.581 535.865 124.398C527.851 127.124 522.205 132.966 522.205 140.138C522.205 150.227 532.3 155.87 554.899 159.464C570.297 162.373 582.106 163.743 582.106 174.343C582.106 181.866 572.697 188.879 555.792 188.879C542.962 188.879 530.977 183.922 530.977 178.104C530.977 173.147 534.916 172.462 535.426 165.449C535.945 159.464 528.066 152.969 521.073 154.292C512.621 155.854 506.815 162.699 506.815 172.103C506.815 187.5 525.953 197.605 555.76 197.605C589.642 197.605 612.232 184.265 612.232 164.596C612.216 143.884 588.43 138.066 558.647 137.046ZM548.28 84.2803C551.16 80.8911 555.174 78.6635 559.575 78.0126C563.976 77.3616 568.464 78.3316 572.203 80.7419C578.271 84.6071 580.551 95.2622 574.372 102.666C566.796 111.751 548.926 110.85 548.926 110.85C548.926 110.85 539.413 94.5449 548.28 84.2803Z" fill="#223345"/>
<path d="M280.001 151.582C274.691 150.729 268.877 148.96 268.877 130.862V107.91C268.877 96.5375 270.927 92.5767 271.955 89.3251C273.327 85.2209 270.584 85.0536 267.171 87.9624C264.436 90.3532 258.79 92.5767 252.626 92.5767C246.462 92.5767 240.306 90.3532 237.563 87.9624C234.82 85.5716 231.575 86.2489 232.946 90.0105C234.143 93.262 235.857 109.767 235.857 119.593V132.535C235.857 148.96 230.036 150.729 224.733 151.582L224.215 159.265H280.512L280.001 151.582Z" fill="#223345"/>
<path d="M248.854 47.2546C223.337 46.115 207.804 66.445 197.82 93.1505C194.314 102.79 191.461 112.655 189.28 122.677L175.094 86.4163C172.016 76.5024 175.612 74.1036 185.707 73.9362L186.872 61.7908H124.786L125.926 73.9362C134.482 74.7889 136.077 77.6978 142.584 90.672L169.624 159.265H194.088C205.395 112.931 214.454 65.3851 236.702 66.2378C232.595 73.0755 238.24 84.7109 251.422 85.0536C274.18 86.249 282.744 48.2827 248.854 47.2546Z" fill="#223345"/>
<path d="M141.93 169.146C136.827 166.708 132.561 163.066 128.621 159.057C118.957 149.215 111.876 137.611 105.752 125.37C101.765 117.353 98.2084 109.081 90.9122 103.056C91.7495 102.745 92.3635 102.498 92.9934 102.259C97.6839 100.765 102.122 98.5728 106.159 95.7561C117.322 87.8983 122.107 74.7328 118.407 61.7028C116.142 53.7733 110.433 48.9517 103.144 45.764C93.6951 41.6199 83.6398 40.1455 73.4729 39.9383C55.8503 39.5797 38.2276 39.6435 20.6049 39.5479C19.7278 40.6795 18.8826 41.843 18.0532 43.0145C17.2239 44.1861 16.3069 45.5648 15.5733 46.6964L18.7629 47.4137L19.2653 47.5173C25.1821 48.6569 28.3876 52.2989 28.7225 58.2839C28.7704 59.1366 28.7225 59.9974 28.7225 60.8581C28.7225 83.64 28.7225 106.422 28.7225 129.204C28.7869 131.791 28.6697 134.379 28.3717 136.95C27.5743 142.752 25.1821 148.904 18.452 151.462C18.2048 151.558 17.9416 151.638 17.6545 151.717C16.7925 152 15.9102 152.215 15.0151 152.363C15.3261 152.857 15.6371 153.343 15.9561 153.829C16.4265 154.562 16.897 155.288 17.3914 156.005C18.125 157.065 18.8586 158.117 19.6241 159.145H74.685C74.5175 156.563 74.3501 154.124 74.1906 151.733C67.923 149.446 65.6424 147.007 64.2788 140.536C63.618 137.415 63.2417 134.241 63.1545 131.053C62.995 123.322 63.0907 115.584 63.0827 107.846C63.0827 107.423 63.1545 107.049 63.2502 106.005C64.223 106.642 65.148 106.929 65.5308 107.551C67.014 109.942 68.4094 112.412 69.6693 114.93C73.6563 122.94 77.2526 131.188 81.6304 138.966C91.6298 156.611 105.385 170.541 124.156 178.885C132.386 182.696 141.352 184.658 150.423 184.631C157.077 180.584 163.233 175.769 168.763 170.286C159.991 173.896 151.068 173.514 141.93 169.146ZM62.6601 87.3244V72.1826C62.6601 62.7627 68.4014 58.26 75.8013 57.5348C86.5185 56.4828 94.2693 65.5042 91.1355 76.3028C87.9139 87.4042 77.0134 87.3244 62.6601 87.3244Z" fill="#223345"/>
</svg>
